# xmcd CD database generated by RipIT
#
# Track frame offsets:
# 150
# 19237
# 36016
# 56571
# 75954
# 91431
# 110251
# 128427
# 134940
# 147390
# 161888
#
# Disc length: 2398 seconds
#
# Revision: 0
# Processed by: cddbd v1.5.2PL0 Copyright (c) Steve Scherf et al.
# Submitted via: RipIT 3.9.0 www.suwald.com/ripit/ripit.html on 2013-08-21 at 10:48
#
DISCID=92095c0b
DTITLE=John Mayer - Paradise Valley
DYEAR=2013
DGENRE=Rock
TTITLE0=Wildfire
TTITLE1=Dear Marie
TTITLE2=Waitin' On the Day
TTITLE3=Paper Doll
TTITLE4=Call Me the Breeze
TTITLE5=Who You Love (feat. Katy Perry)
TTITLE6=I Will Be Found (Lost At Sea)
TTITLE7=Wildfire (feat. Frank Ocean)
TTITLE8=You're No One 'Til Someone Lets You Down
TTITLE9=Badge and Gun
TTITLE10=On the Way Home
EXTD=
EXTT0=
EXTT1=
EXTT2=
EXTT3=
EXTT4=
EXTT5=
EXTT6=
EXTT7=
EXTT8=
EXTT9=
EXTT10=
PLAYORDER=
